<svg width="29" height="24" viewBox="0 0 29 24" fill="none" xmlns="http://www.w3.org/2000/svg">
<path d="M0.0499998 16.4325C0.0499998 13.2992 0.833333 10.2833 2.4 7.385C3.96667 4.48667 5.96417 2.17583 8.3925 0.4525L11.9175 3.2725C10.0375 4.60417 8.43167 6.28833 7.1 8.325C5.76833 10.3617 5.06333 12.32 4.985 14.2C5.14167 14.0433 5.5725 13.965 6.2775 13.965C7.60917 13.965 8.70583 14.4742 9.5675 15.4925C10.5075 16.4325 10.9775 17.5683 10.9775 18.9C10.9775 20.31 10.4683 21.5242 9.45 22.5425C8.51 23.4825 7.335 23.9525 5.925 23.9525C4.28 23.9525 2.87 23.2867 1.695 21.955C0.598333 20.6233 0.0499998 18.7825 0.0499998 16.4325ZM16.735 16.4325C16.735 13.2992 17.5183 10.2833 19.085 7.385C20.6517 4.48667 22.6492 2.17583 25.0775 0.4525L28.6025 3.2725C26.7225 4.60417 25.1167 6.28833 23.785 8.325C22.4533 10.3617 21.7483 12.32 21.67 14.2C21.8267 14.0433 22.2575 13.965 22.9625 13.965C24.2942 13.965 25.3908 14.4742 26.2525 15.4925C27.1925 16.4325 27.6625 17.5683 27.6625 18.9C27.6625 20.31 27.1533 21.5242 26.135 22.5425C25.195 23.4825 24.02 23.9525 22.61 23.9525C20.965 23.9525 19.555 23.2867 18.38 21.955C17.2833 20.6233 16.735 18.7825 16.735 16.4325Z" fill="black"/>
</svg>
